<svg id="visual" viewBox="0 0 900 600" width="900" height="600" preserveAspectRatio="none" xmlns="http://www.w3.org/2000/svg" xmlns:xlink="http://www.w3.org/1999/xlink" version="1.1"><rect x="0" y="0" width="900" height="600" fill="#fff"></rect><path d="M0 221L21.5 224.7C43 228.3 86 235.7 128.8 236.8C171.7 238 214.3 233 257.2 230.2C300 227.3 343 226.7 385.8 210C428.7 193.3 471.3 160.7 514.2 141.2C557 121.7 600 115.3 642.8 115.2C685.7 115 728.3 121 771.2 130.3C814 139.7 857 152.3 878.5 158.7L900 165L900 601L878.5 601C857 601 814 601 771.2 601C728.3 601 685.7 601 642.8 601C600 601 557 601 514.2 601C471.3 601 428.7 601 385.8 601C343 601 300 601 257.2 601C214.3 601 171.7 601 128.8 601C86 601 43 601 21.5 601L0 601Z" fill="#ffffff"></path><path d="M0 287L21.5 279.7C43 272.3 86 257.7 128.8 256.2C171.7 254.7 214.3 266.3 257.2 260C300 253.7 343 229.3 385.8 225C428.7 220.7 471.3 236.3 514.2 232.5C557 228.7 600 205.3 642.8 200.5C685.7 195.7 728.3 209.3 771.2 228.8C814 248.3 857 273.7 878.5 286.3L900 299L900 601L878.5 601C857 601 814 601 771.2 601C728.3 601 685.7 601 642.8 601C600 601 557 601 514.2 601C471.3 601 428.7 601 385.8 601C343 601 300 601 257.2 601C214.3 601 171.7 601 128.8 601C86 601 43 601 21.5 601L0 601Z" fill="#fff4dd"></path><path d="M0 225L21.5 231C43 237 86 249 128.8 257.5C171.7 266 214.3 271 257.2 287.3C300 303.7 343 331.3 385.8 327.8C428.7 324.3 471.3 289.7 514.2 290.5C557 291.3 600 327.7 642.8 334.8C685.7 342 728.3 320 771.2 316.7C814 313.3 857 328.7 878.5 336.3L900 344L900 601L878.5 601C857 601 814 601 771.2 601C728.3 601 685.7 601 642.8 601C600 601 557 601 514.2 601C471.3 601 428.7 601 385.8 601C343 601 300 601 257.2 601C214.3 601 171.7 601 128.8 601C86 601 43 601 21.5 601L0 601Z" fill="#ffe9bb"></path><path d="M0 409L21.5 390.8C43 372.7 86 336.3 128.8 322.8C171.7 309.3 214.3 318.7 257.2 333.2C300 347.7 343 367.3 385.8 379.7C428.7 392 471.3 397 514.2 381.7C557 366.3 600 330.7 642.8 327.7C685.7 324.7 728.3 354.3 771.2 361.2C814 368 857 352 878.5 344L900 336L900 601L878.5 601C857 601 814 601 771.2 601C728.3 601 685.7 601 642.8 601C600 601 557 601 514.2 601C471.3 601 428.7 601 385.8 601C343 601 300 601 257.2 601C214.3 601 171.7 601 128.8 601C86 601 43 601 21.5 601L0 601Z" fill="#ffde99"></path><path d="M0 381L21.5 377.8C43 374.7 86 368.3 128.8 366.2C171.7 364 214.3 366 257.2 365C300 364 343 360 385.8 376.5C428.7 393 471.3 430 514.2 445.7C557 461.3 600 455.7 642.8 452.3C685.7 449 728.3 448 771.2 437.3C814 426.7 857 406.3 878.5 396.2L900 386L900 601L878.5 601C857 601 814 601 771.2 601C728.3 601 685.7 601 642.8 601C600 601 557 601 514.2 601C471.3 601 428.7 601 385.8 601C343 601 300 601 257.2 601C214.3 601 171.7 601 128.8 601C86 601 43 601 21.5 601L0 601Z" fill="#ffd477"></path><path d="M0 472L21.5 475.7C43 479.3 86 486.7 128.8 492.3C171.7 498 214.3 502 257.2 505.5C300 509 343 512 385.8 499.3C428.7 486.7 471.3 458.3 514.2 457.2C557 456 600 482 642.8 493.5C685.7 505 728.3 502 771.2 500C814 498 857 497 878.5 496.5L900 496L900 601L878.5 601C857 601 814 601 771.2 601C728.3 601 685.7 601 642.8 601C600 601 557 601 514.2 601C471.3 601 428.7 601 385.8 601C343 601 300 601 257.2 601C214.3 601 171.7 601 128.8 601C86 601 43 601 21.5 601L0 601Z" fill="#ffca52"></path><path d="M0 551L21.5 544.7C43 538.3 86 525.7 128.8 521.5C171.7 517.3 214.3 521.7 257.2 519.5C300 517.3 343 508.7 385.8 513.3C428.7 518 471.3 536 514.2 534.7C557 533.3 600 512.7 642.8 506.8C685.7 501 728.3 510 771.2 520.5C814 531 857 543 878.5 549L900 555L900 601L878.5 601C857 601 814 601 771.2 601C728.3 601 685.7 601 642.8 601C600 601 557 601 514.2 601C471.3 601 428.7 601 385.8 601C343 601 300 601 257.2 601C214.3 601 171.7 601 128.8 601C86 601 43 601 21.5 601L0 601Z" fill="#ffbf23"></path></svg>