<svg id="visual" viewBox="0 0 900 675" width="900" height="675" preserveAspectRatio="none" xmlns="http://www.w3.org/2000/svg" xmlns:xlink="http://www.w3.org/1999/xlink" version="1.1"><rect x="0" y="0" width="900" height="675" fill="#fff"></rect><path d="M0 397L25 408C50 419 100 441 150 442.8C200 444.7 250 426.3 300 416.2C350 406 400 404 450 422.8C500 441.7 550 481.3 600 482C650 482.7 700 444.3 750 439.5C800 434.7 850 463.3 875 477.7L900 492L900 676L875 676C850 676 800 676 750 676C700 676 650 676 600 676C550 676 500 676 450 676C400 676 350 676 300 676C250 676 200 676 150 676C100 676 50 676 25 676L0 676Z" fill="#ffbf23" stroke-linecap="round" stroke-linejoin="miter"></path></svg>